<mxfile host="app.diagrams.net" modified="2024-05-02T15:08:28.406Z" agent="Mozilla/5.0 (Windows NT 10.0; Win64; x64) AppleWebKit/537.36 (KHTML, like Gecko) Chrome/124.0.0.0 Safari/537.36" etag="7kKPxtm4lmQ7Ch5zYHIb" version="24.3.1" type="device">
  <diagram name="Página-1" id="KE1H-7AuxnKNu1Xd80Wx">
    <mxGraphModel dx="1687" dy="918" grid="1" gridSize="10" guides="1" tooltips="1" connect="1" arrows="1" fold="1" page="1" pageScale="1" pageWidth="827" pageHeight="1169" math="0" shadow="0">
      <root>
        <mxCell id="0" />
        <mxCell id="1" parent="0" />
        <mxCell id="t2iiPQqSYFBC4aTzoLe2-1" value="Actor" style="shape=umlActor;verticalLabelPosition=bottom;verticalAlign=top;html=1;" vertex="1" parent="1">
          <mxGeometry x="60" y="170" width="30" height="60" as="geometry" />
        </mxCell>
        <mxCell id="t2iiPQqSYFBC4aTzoLe2-2" value="Sacar" style="ellipse;whiteSpace=wrap;html=1;" vertex="1" parent="1">
          <mxGeometry x="274" y="30" width="140" height="70" as="geometry" />
        </mxCell>
        <mxCell id="t2iiPQqSYFBC4aTzoLe2-3" value="Depositar" style="ellipse;whiteSpace=wrap;html=1;" vertex="1" parent="1">
          <mxGeometry x="274" y="240" width="140" height="70" as="geometry" />
        </mxCell>
        <mxCell id="t2iiPQqSYFBC4aTzoLe2-4" value="Actor" style="shape=umlActor;verticalLabelPosition=bottom;verticalAlign=top;html=1;" vertex="1" parent="1">
          <mxGeometry x="983" y="120" width="30" height="60" as="geometry" />
        </mxCell>
        <mxCell id="t2iiPQqSYFBC4aTzoLe2-5" value="Include" style="endArrow=open;endSize=12;dashed=1;html=1;rounded=0;exitX=1;exitY=0.5;exitDx=0;exitDy=0;entryX=0;entryY=0.5;entryDx=0;entryDy=0;" edge="1" parent="1" source="t2iiPQqSYFBC4aTzoLe2-3" target="t2iiPQqSYFBC4aTzoLe2-6">
          <mxGeometry width="160" relative="1" as="geometry">
            <mxPoint x="420" y="274.5" as="sourcePoint" />
            <mxPoint x="580" y="274.5" as="targetPoint" />
          </mxGeometry>
        </mxCell>
        <mxCell id="t2iiPQqSYFBC4aTzoLe2-6" value="Atualizar Saldo" style="ellipse;whiteSpace=wrap;html=1;" vertex="1" parent="1">
          <mxGeometry x="540" y="130" width="140" height="70" as="geometry" />
        </mxCell>
        <mxCell id="t2iiPQqSYFBC4aTzoLe2-9" value="Include" style="endArrow=open;endSize=12;dashed=1;html=1;rounded=0;exitX=1;exitY=0.5;exitDx=0;exitDy=0;entryX=0.029;entryY=0.657;entryDx=0;entryDy=0;entryPerimeter=0;" edge="1" parent="1" source="t2iiPQqSYFBC4aTzoLe2-2" target="t2iiPQqSYFBC4aTzoLe2-6">
          <mxGeometry width="160" relative="1" as="geometry">
            <mxPoint x="360" y="179.5" as="sourcePoint" />
            <mxPoint x="520" y="179.5" as="targetPoint" />
          </mxGeometry>
        </mxCell>
        <mxCell id="t2iiPQqSYFBC4aTzoLe2-13" value="name" style="endArrow=block;endFill=1;html=1;edgeStyle=orthogonalEdgeStyle;align=left;verticalAlign=top;rounded=0;entryX=0;entryY=0.5;entryDx=0;entryDy=0;exitX=1;exitY=0.3333333333333333;exitDx=0;exitDy=0;exitPerimeter=0;" edge="1" parent="1" source="t2iiPQqSYFBC4aTzoLe2-1" target="t2iiPQqSYFBC4aTzoLe2-2">
          <mxGeometry x="-1" relative="1" as="geometry">
            <mxPoint x="160" y="210" as="sourcePoint" />
            <mxPoint x="490" y="400" as="targetPoint" />
          </mxGeometry>
        </mxCell>
        <mxCell id="t2iiPQqSYFBC4aTzoLe2-14" value="1" style="edgeLabel;resizable=0;html=1;align=left;verticalAlign=bottom;" connectable="0" vertex="1" parent="t2iiPQqSYFBC4aTzoLe2-13">
          <mxGeometry x="-1" relative="1" as="geometry" />
        </mxCell>
        <mxCell id="t2iiPQqSYFBC4aTzoLe2-15" value="name" style="endArrow=block;endFill=1;html=1;edgeStyle=orthogonalEdgeStyle;align=left;verticalAlign=top;rounded=0;entryX=0;entryY=0.5;entryDx=0;entryDy=0;exitX=1;exitY=0.3333333333333333;exitDx=0;exitDy=0;exitPerimeter=0;" edge="1" parent="1" source="t2iiPQqSYFBC4aTzoLe2-1" target="t2iiPQqSYFBC4aTzoLe2-3">
          <mxGeometry x="-1" relative="1" as="geometry">
            <mxPoint x="330" y="400" as="sourcePoint" />
            <mxPoint x="490" y="400" as="targetPoint" />
          </mxGeometry>
        </mxCell>
        <mxCell id="t2iiPQqSYFBC4aTzoLe2-16" value="1" style="edgeLabel;resizable=0;html=1;align=left;verticalAlign=bottom;" connectable="0" vertex="1" parent="t2iiPQqSYFBC4aTzoLe2-15">
          <mxGeometry x="-1" relative="1" as="geometry" />
        </mxCell>
        <mxCell id="t2iiPQqSYFBC4aTzoLe2-17" value="name" style="endArrow=block;endFill=1;html=1;edgeStyle=orthogonalEdgeStyle;align=left;verticalAlign=top;rounded=0;entryX=1;entryY=0.5;entryDx=0;entryDy=0;exitX=0;exitY=0.3333333333333333;exitDx=0;exitDy=0;exitPerimeter=0;" edge="1" parent="1" source="t2iiPQqSYFBC4aTzoLe2-4" target="t2iiPQqSYFBC4aTzoLe2-2">
          <mxGeometry x="-1" relative="1" as="geometry">
            <mxPoint x="330" y="300" as="sourcePoint" />
            <mxPoint x="490" y="300" as="targetPoint" />
          </mxGeometry>
        </mxCell>
        <mxCell id="t2iiPQqSYFBC4aTzoLe2-18" value="1" style="edgeLabel;resizable=0;html=1;align=left;verticalAlign=bottom;" connectable="0" vertex="1" parent="t2iiPQqSYFBC4aTzoLe2-17">
          <mxGeometry x="-1" relative="1" as="geometry" />
        </mxCell>
        <mxCell id="t2iiPQqSYFBC4aTzoLe2-19" value="name" style="endArrow=block;endFill=1;html=1;edgeStyle=orthogonalEdgeStyle;align=left;verticalAlign=top;rounded=0;exitX=0;exitY=0.3333333333333333;exitDx=0;exitDy=0;exitPerimeter=0;entryX=1;entryY=0.5;entryDx=0;entryDy=0;" edge="1" parent="1" source="t2iiPQqSYFBC4aTzoLe2-4" target="t2iiPQqSYFBC4aTzoLe2-3">
          <mxGeometry x="-1" relative="1" as="geometry">
            <mxPoint x="330" y="300" as="sourcePoint" />
            <mxPoint x="490" y="300" as="targetPoint" />
          </mxGeometry>
        </mxCell>
        <mxCell id="t2iiPQqSYFBC4aTzoLe2-20" value="1" style="edgeLabel;resizable=0;html=1;align=left;verticalAlign=bottom;" connectable="0" vertex="1" parent="t2iiPQqSYFBC4aTzoLe2-19">
          <mxGeometry x="-1" relative="1" as="geometry" />
        </mxCell>
        <mxCell id="t2iiPQqSYFBC4aTzoLe2-22" value="Cliente" style="shape=umlActor;verticalLabelPosition=bottom;verticalAlign=top;html=1;" vertex="1" parent="1">
          <mxGeometry x="10" y="635" width="30" height="60" as="geometry" />
        </mxCell>
        <mxCell id="t2iiPQqSYFBC4aTzoLe2-23" value="" style="html=1;whiteSpace=wrap;" vertex="1" parent="1">
          <mxGeometry x="90" y="460" width="500" height="860" as="geometry" />
        </mxCell>
        <mxCell id="t2iiPQqSYFBC4aTzoLe2-24" value="Verificar Conta" style="ellipse;whiteSpace=wrap;html=1;" vertex="1" parent="1">
          <mxGeometry x="270" y="481" width="140" height="70" as="geometry" />
        </mxCell>
        <mxCell id="t2iiPQqSYFBC4aTzoLe2-25" value="" style="endArrow=open;endFill=1;endSize=12;html=1;rounded=0;exitX=1;exitY=0.3333333333333333;exitDx=0;exitDy=0;exitPerimeter=0;entryX=0;entryY=0.5;entryDx=0;entryDy=0;" edge="1" parent="1" source="t2iiPQqSYFBC4aTzoLe2-22" target="t2iiPQqSYFBC4aTzoLe2-27">
          <mxGeometry width="160" relative="1" as="geometry">
            <mxPoint x="330" y="770" as="sourcePoint" />
            <mxPoint x="490" y="770" as="targetPoint" />
          </mxGeometry>
        </mxCell>
        <mxCell id="t2iiPQqSYFBC4aTzoLe2-26" value="Banco" style="shape=umlActor;verticalLabelPosition=bottom;verticalAlign=top;html=1;" vertex="1" parent="1">
          <mxGeometry x="647" y="552" width="30" height="60" as="geometry" />
        </mxCell>
        <mxCell id="t2iiPQqSYFBC4aTzoLe2-27" value="Realizar Saque" style="ellipse;whiteSpace=wrap;html=1;" vertex="1" parent="1">
          <mxGeometry x="255" y="610" width="170" height="90" as="geometry" />
        </mxCell>
        <mxCell id="t2iiPQqSYFBC4aTzoLe2-28" value="" style="endArrow=open;endFill=1;endSize=12;html=1;rounded=0;exitX=0;exitY=0.3333333333333333;exitDx=0;exitDy=0;exitPerimeter=0;entryX=1;entryY=0.5;entryDx=0;entryDy=0;" edge="1" parent="1" source="t2iiPQqSYFBC4aTzoLe2-26" target="t2iiPQqSYFBC4aTzoLe2-24">
          <mxGeometry width="160" relative="1" as="geometry">
            <mxPoint x="330" y="770" as="sourcePoint" />
            <mxPoint x="490" y="770" as="targetPoint" />
          </mxGeometry>
        </mxCell>
        <mxCell id="t2iiPQqSYFBC4aTzoLe2-29" value="" style="endArrow=open;endFill=1;endSize=12;html=1;rounded=0;exitX=1;exitY=0.3333333333333333;exitDx=0;exitDy=0;exitPerimeter=0;entryX=0;entryY=0.5;entryDx=0;entryDy=0;" edge="1" parent="1" source="t2iiPQqSYFBC4aTzoLe2-22" target="t2iiPQqSYFBC4aTzoLe2-24">
          <mxGeometry width="160" relative="1" as="geometry">
            <mxPoint x="330" y="770" as="sourcePoint" />
            <mxPoint x="490" y="770" as="targetPoint" />
          </mxGeometry>
        </mxCell>
        <mxCell id="t2iiPQqSYFBC4aTzoLe2-30" value="Registrar a Movimentação" style="ellipse;whiteSpace=wrap;html=1;" vertex="1" parent="1">
          <mxGeometry x="270" y="790" width="140" height="70" as="geometry" />
        </mxCell>
        <mxCell id="t2iiPQqSYFBC4aTzoLe2-31" value="" style="endArrow=block;dashed=1;endFill=0;endSize=12;html=1;rounded=0;exitX=0.5;exitY=1;exitDx=0;exitDy=0;entryX=0.5;entryY=0;entryDx=0;entryDy=0;" edge="1" parent="1" source="t2iiPQqSYFBC4aTzoLe2-27" target="t2iiPQqSYFBC4aTzoLe2-30">
          <mxGeometry width="160" relative="1" as="geometry">
            <mxPoint x="330" y="770" as="sourcePoint" />
            <mxPoint x="490" y="770" as="targetPoint" />
          </mxGeometry>
        </mxCell>
        <mxCell id="t2iiPQqSYFBC4aTzoLe2-32" value="&amp;lt;Include&amp;gt;" style="edgeLabel;html=1;align=center;verticalAlign=middle;resizable=0;points=[];" vertex="1" connectable="0" parent="t2iiPQqSYFBC4aTzoLe2-31">
          <mxGeometry x="-0.1091" y="-2" relative="1" as="geometry">
            <mxPoint as="offset" />
          </mxGeometry>
        </mxCell>
        <mxCell id="t2iiPQqSYFBC4aTzoLe2-33" value="Realizar Pagamento" style="ellipse;whiteSpace=wrap;html=1;" vertex="1" parent="1">
          <mxGeometry x="270" y="960" width="140" height="70" as="geometry" />
        </mxCell>
        <mxCell id="t2iiPQqSYFBC4aTzoLe2-34" value="" style="endArrow=open;endFill=1;endSize=12;html=1;rounded=0;exitX=1;exitY=0.3333333333333333;exitDx=0;exitDy=0;exitPerimeter=0;entryX=0;entryY=0.5;entryDx=0;entryDy=0;" edge="1" parent="1" source="t2iiPQqSYFBC4aTzoLe2-22" target="t2iiPQqSYFBC4aTzoLe2-33">
          <mxGeometry width="160" relative="1" as="geometry">
            <mxPoint x="330" y="770" as="sourcePoint" />
            <mxPoint x="490" y="770" as="targetPoint" />
          </mxGeometry>
        </mxCell>
        <mxCell id="t2iiPQqSYFBC4aTzoLe2-35" value="" style="endArrow=block;dashed=1;endFill=0;endSize=12;html=1;rounded=0;entryX=0.5;entryY=1;entryDx=0;entryDy=0;" edge="1" parent="1" source="t2iiPQqSYFBC4aTzoLe2-33" target="t2iiPQqSYFBC4aTzoLe2-30">
          <mxGeometry width="160" relative="1" as="geometry">
            <mxPoint x="510" y="890" as="sourcePoint" />
            <mxPoint x="510" y="1000" as="targetPoint" />
          </mxGeometry>
        </mxCell>
        <mxCell id="t2iiPQqSYFBC4aTzoLe2-36" value="&amp;lt;Include&amp;gt;" style="edgeLabel;html=1;align=center;verticalAlign=middle;resizable=0;points=[];" vertex="1" connectable="0" parent="t2iiPQqSYFBC4aTzoLe2-35">
          <mxGeometry x="-0.1091" y="-2" relative="1" as="geometry">
            <mxPoint as="offset" />
          </mxGeometry>
        </mxCell>
        <mxCell id="t2iiPQqSYFBC4aTzoLe2-37" value="Extends" style="endArrow=block;endSize=16;endFill=0;html=1;rounded=0;exitX=0.5;exitY=1;exitDx=0;exitDy=0;entryX=0.5;entryY=0;entryDx=0;entryDy=0;" edge="1" parent="1" source="t2iiPQqSYFBC4aTzoLe2-33" target="t2iiPQqSYFBC4aTzoLe2-38">
          <mxGeometry width="160" relative="1" as="geometry">
            <mxPoint x="330" y="1070" as="sourcePoint" />
            <mxPoint x="490" y="1070" as="targetPoint" />
          </mxGeometry>
        </mxCell>
        <mxCell id="t2iiPQqSYFBC4aTzoLe2-38" value="Imprimir Comprovante" style="ellipse;whiteSpace=wrap;html=1;" vertex="1" parent="1">
          <mxGeometry x="270" y="1120" width="140" height="70" as="geometry" />
        </mxCell>
        <mxCell id="t2iiPQqSYFBC4aTzoLe2-44" style="edgeStyle=orthogonalEdgeStyle;rounded=0;orthogonalLoop=1;jettySize=auto;html=1;exitX=0;exitY=0.3333333333333333;exitDx=0;exitDy=0;exitPerimeter=0;entryX=1;entryY=0.5;entryDx=0;entryDy=0;" edge="1" parent="1" source="t2iiPQqSYFBC4aTzoLe2-39" target="t2iiPQqSYFBC4aTzoLe2-30">
          <mxGeometry relative="1" as="geometry" />
        </mxCell>
        <mxCell id="t2iiPQqSYFBC4aTzoLe2-39" value="Gerente" style="shape=umlActor;verticalLabelPosition=bottom;verticalAlign=top;html=1;" vertex="1" parent="1">
          <mxGeometry x="647" y="805" width="30" height="60" as="geometry" />
        </mxCell>
        <mxCell id="t2iiPQqSYFBC4aTzoLe2-46" value="" style="endArrow=open;endFill=1;endSize=12;html=1;rounded=0;exitX=0.5;exitY=0.5;exitDx=0;exitDy=0;exitPerimeter=0;entryX=0.5;entryY=0;entryDx=0;entryDy=0;entryPerimeter=0;" edge="1" parent="1" source="t2iiPQqSYFBC4aTzoLe2-26" target="t2iiPQqSYFBC4aTzoLe2-39">
          <mxGeometry width="160" relative="1" as="geometry">
            <mxPoint x="760" y="909" as="sourcePoint" />
            <mxPoint x="920" y="909" as="targetPoint" />
          </mxGeometry>
        </mxCell>
        <mxCell id="t2iiPQqSYFBC4aTzoLe2-54" style="edgeStyle=orthogonalEdgeStyle;rounded=0;orthogonalLoop=1;jettySize=auto;html=1;exitX=1;exitY=0.3333333333333333;exitDx=0;exitDy=0;exitPerimeter=0;entryX=0;entryY=0.5;entryDx=0;entryDy=0;" edge="1" parent="1" source="t2iiPQqSYFBC4aTzoLe2-50" target="t2iiPQqSYFBC4aTzoLe2-52">
          <mxGeometry relative="1" as="geometry" />
        </mxCell>
        <mxCell id="t2iiPQqSYFBC4aTzoLe2-50" value="Cliente" style="shape=umlActor;verticalLabelPosition=bottom;verticalAlign=top;html=1;" vertex="1" parent="1">
          <mxGeometry x="887" y="500" width="30" height="60" as="geometry" />
        </mxCell>
        <mxCell id="t2iiPQqSYFBC4aTzoLe2-53" style="edgeStyle=orthogonalEdgeStyle;rounded=0;orthogonalLoop=1;jettySize=auto;html=1;exitX=0;exitY=0.3333333333333333;exitDx=0;exitDy=0;exitPerimeter=0;entryX=1;entryY=0.5;entryDx=0;entryDy=0;" edge="1" parent="1" source="t2iiPQqSYFBC4aTzoLe2-51" target="t2iiPQqSYFBC4aTzoLe2-52">
          <mxGeometry relative="1" as="geometry" />
        </mxCell>
        <mxCell id="t2iiPQqSYFBC4aTzoLe2-51" value="Innova Express" style="shape=umlActor;verticalLabelPosition=bottom;verticalAlign=top;html=1;" vertex="1" parent="1">
          <mxGeometry x="1666" y="500" width="30" height="60" as="geometry" />
        </mxCell>
        <mxCell id="t2iiPQqSYFBC4aTzoLe2-52" value="Cadastrar Clientes" style="ellipse;whiteSpace=wrap;html=1;" vertex="1" parent="1">
          <mxGeometry x="1119" y="486" width="140" height="70" as="geometry" />
        </mxCell>
        <mxCell id="t2iiPQqSYFBC4aTzoLe2-55" value="Pedir Coleta de Cargas" style="ellipse;whiteSpace=wrap;html=1;" vertex="1" parent="1">
          <mxGeometry x="1119" y="580" width="140" height="70" as="geometry" />
        </mxCell>
        <mxCell id="t2iiPQqSYFBC4aTzoLe2-57" value="Pagar Transporte" style="ellipse;whiteSpace=wrap;html=1;" vertex="1" parent="1">
          <mxGeometry x="1119" y="680" width="140" height="70" as="geometry" />
        </mxCell>
        <mxCell id="t2iiPQqSYFBC4aTzoLe2-59" value="" style="endArrow=open;endFill=1;endSize=12;html=1;rounded=0;exitX=1;exitY=0.3333333333333333;exitDx=0;exitDy=0;exitPerimeter=0;entryX=0;entryY=0.5;entryDx=0;entryDy=0;" edge="1" parent="1" source="t2iiPQqSYFBC4aTzoLe2-50" target="t2iiPQqSYFBC4aTzoLe2-55">
          <mxGeometry width="160" relative="1" as="geometry">
            <mxPoint x="1190" y="820" as="sourcePoint" />
            <mxPoint x="1350" y="820" as="targetPoint" />
          </mxGeometry>
        </mxCell>
        <mxCell id="t2iiPQqSYFBC4aTzoLe2-60" value="" style="endArrow=open;endFill=1;endSize=12;html=1;rounded=0;exitX=1;exitY=0.3333333333333333;exitDx=0;exitDy=0;exitPerimeter=0;entryX=0;entryY=0.5;entryDx=0;entryDy=0;" edge="1" parent="1" source="t2iiPQqSYFBC4aTzoLe2-50" target="t2iiPQqSYFBC4aTzoLe2-57">
          <mxGeometry width="160" relative="1" as="geometry">
            <mxPoint x="1190" y="820" as="sourcePoint" />
            <mxPoint x="1350" y="820" as="targetPoint" />
          </mxGeometry>
        </mxCell>
        <mxCell id="t2iiPQqSYFBC4aTzoLe2-61" value="Gerar Protocolo no Sistema" style="ellipse;whiteSpace=wrap;html=1;" vertex="1" parent="1">
          <mxGeometry x="1119" y="830" width="140" height="70" as="geometry" />
        </mxCell>
        <mxCell id="t2iiPQqSYFBC4aTzoLe2-63" value="" style="endArrow=open;endFill=1;endSize=12;html=1;rounded=0;exitX=0;exitY=0.3333333333333333;exitDx=0;exitDy=0;exitPerimeter=0;entryX=1;entryY=0.5;entryDx=0;entryDy=0;" edge="1" parent="1" source="t2iiPQqSYFBC4aTzoLe2-51" target="t2iiPQqSYFBC4aTzoLe2-61">
          <mxGeometry width="160" relative="1" as="geometry">
            <mxPoint x="1190" y="740" as="sourcePoint" />
            <mxPoint x="1350" y="740" as="targetPoint" />
          </mxGeometry>
        </mxCell>
        <mxCell id="t2iiPQqSYFBC4aTzoLe2-64" value="" style="endArrow=block;dashed=1;endFill=0;endSize=12;html=1;rounded=0;exitX=0.5;exitY=1;exitDx=0;exitDy=0;entryX=0.5;entryY=0;entryDx=0;entryDy=0;" edge="1" parent="1" source="t2iiPQqSYFBC4aTzoLe2-57" target="t2iiPQqSYFBC4aTzoLe2-61">
          <mxGeometry width="160" relative="1" as="geometry">
            <mxPoint x="307" y="710" as="sourcePoint" />
            <mxPoint x="307" y="800" as="targetPoint" />
          </mxGeometry>
        </mxCell>
        <mxCell id="t2iiPQqSYFBC4aTzoLe2-65" value="&amp;lt;Include&amp;gt;" style="edgeLabel;html=1;align=center;verticalAlign=middle;resizable=0;points=[];" vertex="1" connectable="0" parent="t2iiPQqSYFBC4aTzoLe2-64">
          <mxGeometry x="-0.1091" y="-2" relative="1" as="geometry">
            <mxPoint as="offset" />
          </mxGeometry>
        </mxCell>
        <mxCell id="t2iiPQqSYFBC4aTzoLe2-66" value="Acompanhar Frota" style="ellipse;whiteSpace=wrap;html=1;" vertex="1" parent="1">
          <mxGeometry x="1360" y="542" width="140" height="70" as="geometry" />
        </mxCell>
        <mxCell id="t2iiPQqSYFBC4aTzoLe2-67" value="" style="endArrow=open;endFill=1;endSize=12;html=1;rounded=0;exitX=0;exitY=0.3333333333333333;exitDx=0;exitDy=0;exitPerimeter=0;entryX=1;entryY=0.5;entryDx=0;entryDy=0;" edge="1" parent="1" source="t2iiPQqSYFBC4aTzoLe2-51" target="t2iiPQqSYFBC4aTzoLe2-66">
          <mxGeometry width="160" relative="1" as="geometry">
            <mxPoint x="1250" y="860" as="sourcePoint" />
            <mxPoint x="1410" y="860" as="targetPoint" />
          </mxGeometry>
        </mxCell>
      </root>
    </mxGraphModel>
  </diagram>
</mxfile>
